<svg xmlns="http://www.w3.org/2000/svg" viewBox="0 0 64 64" role="img" aria-label="BiAnıBırak">
<rect width="64" height="64" rx="14" fill="#6E2438"/>
<svg x="18" y="14" width="28" height="17" viewBox="2 -155 225 161" preserveAspectRatio="xMidYMid meet"><path d="M151.30-33.50L151.30-33.50Q151.30-18.50 138.35-9.25Q125.40 0 98.30 0L98.30 0L17.50 0Q13.10 0 11-1.85Q8.90-3.70 8.90-6.80L8.90-6.80Q8.90-12.20 14.10-14.20L14.10-14.20L17.90-15.60Q20.50-16.60 21.75-18.15Q23-19.70 23-22.20L23-22.20L23-117.80Q23-120.30 21.75-121.85Q20.50-123.40 17.90-124.40L17.90-124.40L14.10-125.80Q8.90-127.80 8.90-133.20L8.90-133.20Q8.90-136.40 11-138.20Q13.10-140 17.50-140L17.50-140L80.80-140Q100.30-140 114.30-134.80Q128.30-129.60 135.80-120.30Q143.30-111 143.30-98.50L143.30-98.50Q143.30-88.40 137.25-80.65Q131.20-72.90 119.70-68.50Q108.20-64.10 91.80-64.10L91.80-64.10L96.30-68.20Q112.70-68.20 125.05-63.85Q137.40-59.50 144.35-51.65Q151.30-43.80 151.30-33.50ZM82.50-58.40L82.50-58.40L56.70-58.40L56.70-69.50L77.60-69.50Q85-69.50 89.95-72.30Q94.90-75.10 97.35-80.95Q99.80-86.80 99.80-95.80L99.80-95.80Q99.80-105.50 96.50-112.45Q93.20-119.40 87.05-123.20Q80.90-127 72.30-127L72.30-127L69.40-127L69.40-24.90Q69.40-18.80 72.80-15.90Q76.20-13 82.50-13L82.50-13L87.60-13Q93.20-13 97.25-15.55Q101.30-18.10 103.50-23.05Q105.70-28 105.70-35L105.70-35Q105.70-46 99.55-52.20Q93.40-58.40 82.50-58.40ZM212.20-90.40L212.20-90.40L212.20-21Q212.20-17 212.80-15.35Q213.40-13.70 214.90-13L214.90-13L217.10-12Q219.40-11 220.40-9.50Q221.40-8 221.40-6L221.40-6Q221.40-3.20 219.60-1.60Q217.80 0 213.80 0L213.80 0L168.20 0Q164.20 0 162.40-1.60Q160.60-3.20 160.60-6L160.60-6Q160.60-8 161.60-9.50Q162.60-11 164.90-12L164.90-12L167.10-13Q168.60-13.70 169.20-15.35Q169.80-17 169.80-21L169.80-21L169.80-68Q169.80-71.20 168.95-72.55Q168.10-73.90 166.40-74.40L166.40-74.40L164.20-75.10Q162.10-75.80 161.15-77.10Q160.20-78.40 160.20-80.40L160.20-80.40Q160.20-82.80 161.50-84.20Q162.80-85.60 166.40-87L166.40-87L188.60-95.60Q194-97.70 197.10-98.55Q200.20-99.40 202.60-99.40L202.60-99.40Q207.40-99.40 209.80-96.85Q212.20-94.30 212.20-90.40ZM188.80-108.20L188.80-108.20Q177.60-108.20 171.10-113.40Q164.60-118.60 164.60-127.60L164.60-127.60Q164.60-136.50 171.10-141.60Q177.60-146.70 188.80-146.70L188.80-146.70Q200-146.70 206.50-141.60Q213-136.50 213-127.60L213-127.60Q213-118.60 206.50-113.40Q200-108.20 188.80-108.20Z" fill="#C4A25E"/></svg>
<svg x="14" y="33" width="36" height="15" viewBox="-4 -148 370 154" preserveAspectRatio="xMidYMid meet"><path d="M35.50-44.70L35.70-59.60L94.10-59.60L94.20-44.70L35.50-44.70ZM51.80-6.80L51.80-6.80Q51.80-3.70 49.75-1.85Q47.70 0 43.30 0L43.30 0L11.30 0Q7 0 4.90-1.85Q2.80-3.70 2.80-6.80L2.80-6.80Q2.80-9 3.85-10.55Q4.90-12.10 7.30-13.60L7.30-13.60L9.40-14.90Q12.70-16.90 14.55-19.85Q16.40-22.80 18.60-30.10L18.60-30.10L44.20-112.80Q46-118.70 45.50-121.35Q45-124 41.40-125.70L41.40-125.70Q38.60-127.10 37.45-128.90Q36.30-130.70 36.30-133.20L36.30-133.20Q36.30-136.40 38.40-138.20Q40.50-140 44.90-140L44.90-140L109.20-140Q113.60-140 115.70-138.20Q117.80-136.40 117.80-133.20L117.80-133.20Q117.80-130.50 116.55-128.75Q115.30-127 113-125.90L113-125.90Q110.50-124.70 110.05-122.65Q109.60-120.60 111-116.20L111-116.20L138.50-29.10Q140.60-22.40 142.30-19.25Q144-16.10 146.80-14.70L146.80-14.70Q150.30-12.90 151.50-11.20Q152.70-9.50 152.70-6.80L152.70-6.80Q152.70-3.70 150.60-1.85Q148.50 0 144.10 0L144.10 0L91.30 0Q86.80 0 84.75-1.85Q82.70-3.70 82.70-6.80L82.70-6.80Q82.70-9.30 84-10.85Q85.30-12.40 87.90-13.60L87.90-13.60L91.10-15.10Q93.70-16.30 93.30-18.35Q92.90-20.40 91.50-25L91.50-25L62.10-122.50L66.30-125.40L37.60-32.70Q36-27.60 35.95-24.45Q35.90-21.30 37.80-19.15Q39.70-17 43.90-14.80L43.90-14.80L46.70-13.40Q49-12.20 50.40-10.75Q51.80-9.30 51.80-6.80ZM215.00-90.40L215.00-90.40L215.00-21Q215.00-17 215.60-15.40Q216.20-13.80 217.70-13L217.70-13L219.70-11.90Q223.00-10 223.00-6.40L223.00-6.40Q223.00 0 215.30 0L215.30 0L171.00 0Q167.00 0 165.20-1.60Q163.40-3.20 163.40-6L163.40-6Q163.40-8 164.40-9.50Q165.40-11 167.70-12L167.70-12L169.90-13Q171.40-13.70 172.00-15.35Q172.60-17 172.60-21L172.60-21L172.60-68Q172.60-71.20 171.75-72.55Q170.90-73.90 169.20-74.40L169.20-74.40L167.00-75.10Q164.90-75.80 163.95-77.10Q163.00-78.40 163.00-80.40L163.00-80.40Q163.00-82.80 164.30-84.20Q165.60-85.60 169.20-87L169.20-87L191.40-95.60Q196.50-97.60 199.65-98.50Q202.80-99.40 205.80-99.40L205.80-99.40Q210.30-99.40 212.65-96.85Q215.00-94.30 215.00-90.40ZM214.90-69.10L211.40-66L205.40-72.40L208.40-75.20Q222.50-88.30 232.50-93.85Q242.50-99.40 251.00-99.40L251.00-99.40Q264-99.40 271.35-90.50Q278.70-81.60 280-67.40L280-67.40L284.50-21Q284.90-17 285.30-15.35Q285.70-13.70 287.20-13L287.20-13L289.40-12Q291.70-11 292.70-9.50Q293.70-8 293.70-6L293.70-6Q293.70-3.20 291.90-1.60Q290.10 0 286.10 0L286.10 0L241.30 0Q233.60 0 233.60-6.40L233.60-6.40Q233.60-10 236.90-11.90L236.90-11.90L238.90-13Q240.40-13.80 241.20-15.40Q242.00-17 241.60-21L241.60-21L237.80-61.40Q237.20-67.80 234.75-71Q232.30-74.20 227.20-74.20L227.20-74.20Q224.10-74.20 220.85-72.85Q217.60-71.50 214.90-69.10L214.90-69.10ZM351.70-92.80L351.70-92.80L351.70-21Q351.70-17.10 352.40-15.50Q353.10-13.90 354.50-13L354.50-13L356.50-12Q358.50-11 359.55-9.50Q360.60-8 360.60-5.90L360.60-5.90Q360.60-3.10 358.65-1.55Q356.70 0 353.30 0L353.30 0L308.30 0Q304.90 0 302.95-1.55Q301.00-3.10 301.00-5.90L301.00-5.90Q301.00-8 302.05-9.50Q303.10-11 305.00-12L305.00-12L307.20-13Q308.60-13.90 309.25-15.50Q309.90-17.10 309.90-21L309.90-21L309.90-68.70Q309.90-71.90 309.00-73.15Q308.10-74.40 306.50-75.10L306.50-75.10L304.30-75.60Q302.40-76.40 301.35-77.60Q300.30-78.80 300.30-80.90L300.30-80.90Q300.30-83.20 301.80-84.65Q303.30-86.10 306.50-87.30L306.50-87.30L333.00-96.50Q337.20-97.90 339.70-98.55Q342.20-99.20 345.20-99.20L345.20-99.20Q348.10-99.20 349.90-97.40Q351.70-95.60 351.70-92.80Z" fill="#C4A25E"/></svg>
</svg>